# xmcd CD database file
#
# Track frame offsets:
#	150
#	20498
#	35410
#	52428
#	69245
#	88770
#	110703
#	129813
#	149618
#	167385
#
# Disc length: 2504 seconds
#
# Revision: 3
# Processed by: cddbd v1.5.1PL0 Copyright (c) Steve Scherf et al.
# Submitted via: CDex 1.51
#
DISCID=8a09c60a
DTITLE=REPLICA - ZERO and NOT for Rep's Baby's
DYEAR=1989
DGENRE=Japanese Rock
TTITLE0=GIRL,DO YOU REMEMBER
TTITLE1=WILD STATE
TTITLE2=BABY TOGETHER
TTITLE3=KAGEROH
TTITLE4=DANCE WITH CROCODILE BOY
TTITLE5=BIG MOUTH BOYの憂鬱
TTITLE6=沈黙の飛行船
TTITLE7=DREAMIN' DREAMIN'
TTITLE8=SOMEDAY
TTITLE9=SHINE ON MY DREAM
EXTD=YEAR: 1989
EXTT0=
EXTT1=
EXTT2=
EXTT3=
EXTT4=
EXTT5=
EXTT6=
EXTT7=
EXTT8=
EXTT9=
PLAYORDER=
